HIERARCHY
ROOT Hips
{
  OFFSET 52.3554 91.5833 3.17846
  CHANNELS 6 Xposition Yposition Zposition Zrotation Xrotation Yrotation
  JOINT spine
  {
    OFFSET 0 6.84637 0.3937
    CHANNELS 3 Zrotation Xrotation Yrotation
    JOINT spine1
    {
      OFFSET 0 9.49621 0
      CHANNELS 3 Zrotation Xrotation Yrotation
      JOINT spine2
      {
        OFFSET 0 9.09909 0
        CHANNELS 3 Zrotation Xrotation Yrotation
        JOINT Neck
        {
          OFFSET 0 23.3612 1.11378
          CHANNELS 3 Zrotation Xrotation Yrotation
          JOINT Head
          {
            OFFSET 0 7.05802 0
            CHANNELS 3 Zrotation Xrotation Yrotation
            End Site
            {
              OFFSET 0 17.0844 -5.63419
            }
          }
        }
        JOINT RightShoulder
        {
          OFFSET -3.83136 9.82631 -0.533491
          CHANNELS 3 Zrotation Xrotation Yrotation
          JOINT RightArm
          {
            OFFSET 0 12.8881 0
            CHANNELS 3 Zrotation Xrotation Yrotation
            JOINT RightArmRoll
            {
              OFFSET 0 6.50616 0
              CHANNELS 3 Zrotation Xrotation Yrotation
              JOINT RightForeArm
              {
                OFFSET 0 18.9501 0
                CHANNELS 3 Zrotation Xrotation Yrotation
                JOINT RightForeArmRoll
                {
                  OFFSET 0 7.30092 0
                  CHANNELS 3 Zrotation Xrotation Yrotation
                  JOINT RightHand
                  {
                    OFFSET 0 14.6514 0
                    CHANNELS 3 Zrotation Xrotation Yrotation
                    End Site
                    {
                      OFFSET 0 0 0
                    }
                  }
                }
              }
            }
          }
        }
        JOINT LeftShoulder
        {
          OFFSET 3.83136 9.82631 -0.533491
          CHANNELS 3 Zrotation Xrotation Yrotation
          JOINT LeftArm
          {
            OFFSET 0 12.8881 0
            CHANNELS 3 Zrotation Xrotation Yrotation
            JOINT LeftArmRoll
            {
              OFFSET 0 6.50617 0
              CHANNELS 3 Zrotation Xrotation Yrotation
              JOINT LeftForeArm
              {
                OFFSET 0 18.9501 0
                CHANNELS 3 Zrotation Xrotation Yrotation
                JOINT LeftForeArmRoll
                {
                  OFFSET 0 7.30092 0
                  CHANNELS 3 Zrotation Xrotation Yrotation
                  JOINT LeftHand
                  {
                    OFFSET 0 14.6514 0
                    CHANNELS 3 Zrotation Xrotation Yrotation
                    End Site
                    {
                      OFFSET 0 0 0
                    }
                  }
                }
              }
            }
          }
        }
      }
    }
  }
  JOINT RightUpLeg
  {
    OFFSET -6.06837 -1.11278 -0.933477
    CHANNELS 3 Zrotation Xrotation Yrotation
    JOINT RightUpLegRoll
    {
      OFFSET 0 17.1796 0
      CHANNELS 3 Zrotation Xrotation Yrotation
      JOINT RightLeg
      {
        OFFSET 0 -21.2743 0
        CHANNELS 3 Zrotation Xrotation Yrotation
        JOINT RightLegRoll
        {
          OFFSET 0 21.3439 0
          CHANNELS 3 Zrotation Xrotation Yrotation
          JOINT RightFoot
          {
            OFFSET 0 17.7652 0
            CHANNELS 3 Zrotation Xrotation Yrotation
            JOINT RightToeBase
            {
              OFFSET 0 14.8508 0
              CHANNELS 3 Zrotation Xrotation Yrotation
              End Site
              {
                OFFSET 0.0062947 7.19213 -0.829005
              }
            }
          }
        }
      }
    }
  }
  JOINT LeftUpLeg
  {
    OFFSET 6.06837 -1.11278 -0.933477
    CHANNELS 3 Zrotation Xrotation Yrotation
    JOINT LeftUpLegRoll
    {
      OFFSET 0 17.1797 0
      CHANNELS 3 Zrotation Xrotation Yrotation
      JOINT LeftLeg
      {
        OFFSET 0 21.2742 0
        CHANNELS 3 Zrotation Xrotation Yrotation
        JOINT LeftLegRoll
        {
          OFFSET 0 21.5412 0
          CHANNELS 3 Zrotation Xrotation Yrotation
          JOINT LeftFoot
          {
            OFFSET 0 17.5679 0
            CHANNELS 3 Zrotation Xrotation Yrotation
            JOINT LeftToeBase
            {
              OFFSET 0 14.8508 0
              CHANNELS 3 Zrotation Xrotation Yrotation
              End Site
              {
                OFFSET -0.0282102 7.19214 -0.829005
              }
            }
          }
        }
      }
    }
  }
}
MOTION
Frames: 13
Frame Time: 0.00208333
54.1718 91.6501 2.88357 0.271023 -2.49779 -6.33362 0.292711 -1.28593 -0.123285 0.583792 1.4302 -0.278897 0.587579 3.0752 -0.288837 -9.65581 31.5298 4.1326 5.87581 -13.7761 0.987399 69.6638 7.59089 2.48571 102.513 4.50316 11.4023 1.42822e-007 -4.87977e-007 -4.46147e-006 11.9992 16.4354 -2.82546 -8.94531e-006 -7.79427e-006 -3.00001 8.02888 -4.95147 0.697695 -78.06 6.9585 -0.660801 -95.0502 12.0769 -27.7361 -6.00928e-007 8.38744e-007 2.73694e-006 -8.2616 23.807 3.23083 -1.3052e-005 -4.85462e-006 2.99999 -8.02917 -4.95164 -0.697735 174.101 2.66195 1.99318 -180 7.01552e-015 178.947 177.671 4.84416 179.964 3.02796e-006 7.70169e-007 0.0476142 -18.5204 67.7428 19.3291 8.13649 25.2327 -3.48774 -174.967 -1.87257 -0.569299 4.54188e-006 -4.6773e-006 -1.13691 -2.06689 -5.3059 0.0554755 -6.39798e-007 2.19306e-006 -0.0433668 18.3596 67.5168 -19.1625 -8.13081 25.233 3.48532 
54.1821 91.6492 2.88903 0.286308 -2.4805 -6.38819 0.283829 -1.28516 -0.128278 0.566026 1.43175 -0.288963 0.569921 3.07676 -0.29861 -9.57357 31.4944 4.12847 5.80104 -13.7836 1.00755 69.7532 7.61686 2.48091 102.432 4.51463 11.3807 1.42822e-007 -4.87977e-007 -4.46147e-006 12.0177 16.5173 -2.83793 -8.94531e-006 -7.79427e-006 -3.00001 8.02888 -4.95147 0.697695 -77.9843 6.91944 -0.657946 -95.1021 12.0968 -27.7772 -6.00928e-007 8.38744e-007 2.73694e-006 -8.19726 23.7117 3.1994 -1.3052e-005 -4.85462e-006 2.99999 -8.02917 -4.95164 -0.697735 174.069 2.71405 2.02224 -180 7.01553e-015 178.948 177.649 4.86641 179.965 3.02796e-006 7.70169e-007 0.0483227 -18.5171 67.7392 19.3257 8.13649 25.2327 -3.48774 -174.988 -1.83239 -0.564091 4.54188e-006 -4.6773e-006 -1.13692 -2.07384 -5.33689 0.0558806 -6.39798e-007 2.19306e-006 -0.0433668 18.3473 67.5014 -19.1488 -8.13081 25.233 3.48532 
54.3239 91.6415 2.85787 0.302551 -2.46322 -6.44249 0.274616 -1.28439 -0.133451 0.547625 1.4333 -0.299421 0.551633 3.07831 -0.308766 -9.49065 31.4583 4.12464 5.72592 -13.7905 1.02828 69.8447 7.64413 2.47633 102.349 4.52724 11.3598 1.42822e-007 -4.87977e-007 -4.46147e-006 12.0362 16.5972 -2.8501 -8.94531e-006 -7.79427e-006 -3.00001 8.02888 -4.95147 0.697695 -77.9072 6.87892 -0.654719 -95.1547 12.117 -27.8186 -6.00928e-007 8.38744e-007 2.73694e-006 -8.13253 23.6159 3.16782 -1.3052e-005 -4.85462e-006 2.99999 -8.02917 -4.95164 -0.697735 174.035 2.76578 2.05259 -180 7.01553e-015 178.948 177.627 4.88786 179.966 3.02796e-006 7.70169e-007 0.0490566 -18.5135 67.7354 19.3221 8.13649 25.2327 -3.48774 -175.01 -1.79221 -0.558246 4.54188e-006 -4.6773e-006 -1.13692 -2.08087 -5.36781 0.0562798 -6.39798e-007 2.19306e-006 -0.0433668 18.3351 67.4862 -19.1352 -8.13081 25.233 3.48532 
54.3074 91.6406 2.84855 0.319475 -2.44596 -6.49658 0.265172 -1.28363 -0.138749 0.528782 1.43484 -0.310155 0.532906 3.07986 -0.31919 -9.40724 31.4218 4.121 5.65056 -13.797 1.0494 69.9375 7.6723 2.47192 102.264 4.54064 11.3393 1.42822e-007 -4.87977e-007 -4.46147e-006 12.0546 16.6756 -2.86205 -8.94531e-006 -7.79427e-006 -3.00001 8.02888 -4.95147 0.697695 -77.8293 6.83738 -0.651233 -95.208 12.1374 -27.8602 -6.00928e-007 8.38744e-007 2.73694e-006 -8.06756 23.5199 3.13613 -1.3052e-005 -4.85462e-006 2.99999 -8.02917 -4.95164 -0.697735 174 2.81726 2.08385 -180 7.01553e-015 178.949 177.604 4.90877 179.966 3.02796e-006 7.70169e-007 0.0498084 -18.5099 67.7314 19.3183 8.13649 25.2327 -3.48774 -175.034 -1.75204 -0.551954 4.54188e-006 -4.6773e-006 -1.13691 -2.08794 -5.3987 0.0566748 -6.39798e-007 2.19306e-006 -0.0433668 18.3231 67.4712 -19.1218 -8.13081 25.233 3.48532 
54.3533 91.6376 2.84024 0.336802 -2.42871 -6.55055 0.255595 -1.28286 -0.144118 0.509685 1.43638 -0.321047 0.513927 3.0814 -0.329767 -9.32356 31.3851 4.11748 5.57506 -13.8033 1.07076 70.0311 7.70098 2.4676 102.179 4.5545 11.319 1.42822e-007 -4.87977e-007 -4.46147e-006 12.0729 16.7532 -2.87389 -8.94531e-006 -7.79427e-006 -3.00001 8.02888 -4.95147 0.697695 -77.7508 6.79525 -0.647599 -95.2616 12.1579 -27.9018 -6.00928e-007 8.38744e-007 2.73694e-006 -8.0025 23.4237 3.10441 -1.3052e-005 -4.85462e-006 2.99999 -8.02917 -4.95164 -0.697735 173.964 2.86859 2.11562 -180 7.01553e-015 178.95 177.581 4.92935 179.967 3.02796e-006 7.70169e-007 0.0505704 -18.5062 67.7273 19.3144 8.13649 25.2327 -3.48774 -175.057 -1.71187 -0.545407 4.54188e-006 -4.6773e-006 -1.13689 -2.09504 -5.42957 0.0570675 -6.39798e-007 2.19306e-006 -0.0433668 18.3112 67.4563 -19.1085 -8.13081 25.233 3.48532 
54.3678 91.6393 2.82469 0.354254 -2.41146 -6.6045 0.245985 -1.2821 -0.149506 0.490526 1.43791 -0.331977 0.494886 3.08294 -0.340382 -9.23982 31.3482 4.114 5.49953 -13.8095 1.09217 70.1249 7.72979 2.4633 102.094 4.56847 11.2988 1.42822e-007 -4.87977e-007 -4.46147e-006 12.0913 16.8305 -2.88572 -8.94531e-006 -7.79427e-006 -3.00001 8.02888 -4.95147 0.697695 -77.6721 6.75298 -0.643929 -95.3152 12.1784 -27.9436 -6.00928e-007 8.38744e-007 2.73694e-006 -7.9375 23.3274 3.07273 -1.3052e-005 -4.85462e-006 2.99999 -8.02917 -4.95164 -0.697735 173.928 2.91989 2.14753 -180 7.01553e-015 178.95 177.558 4.94984 179.968 3.02796e-006 7.70169e-007 0.0513349 -18.5024 67.7232 19.3105 8.13649 25.2327 -3.48774 -175.081 -1.6717 -0.538797 4.54188e-006 -4.6773e-006 -1.13688 -2.10215 -5.46043 0.0574596 -6.39798e-007 2.19306e-006 -0.0433668 18.2993 67.4414 -19.0952 -8.13081 25.233 3.48532 
54.2697 91.6405 2.79368 0.371552 -2.39421 -6.65851 0.236442 -1.28133 -0.154858 0.471494 1.43945 -0.342829 0.475971 3.08448 -0.35092 -9.15622 31.3115 4.11046 5.42408 -13.8158 1.11347 70.2183 7.75834 2.45896 102.009 4.58222 11.2785 1.42822e-007 -4.87977e-007 -4.46147e-006 12.1098 16.9083 -2.89762 -8.94531e-006 -7.79427e-006 -3.00001 8.02888 -4.95147 0.697695 -77.5938 6.711 -0.640334 -95.3686 12.1989 -27.9852 -6.00928e-007 8.38744e-007 2.73694e-006 -7.87272 23.2312 3.04114 -1.3052e-005 -4.85462e-006 2.99999 -8.02917 -4.95164 -0.697735 173.893 2.97125 2.17918 -180 7.01553e-015 178.951 177.535 4.9705 179.968 3.02796e-006 7.70169e-007 0.0520943 -18.4987 67.7191 19.3067 8.13649 25.2327 -3.48774 -175.105 -1.63153 -0.532315 4.54188e-006 -4.6773e-006 -1.13687 -2.10925 -5.4913 0.0578529 -6.39798e-007 2.19306e-006 -0.0433668 18.2874 67.4264 -19.0818 -8.13081 25.233 3.48532 
54.3125 91.6386 2.78308 0.388421 -2.37695 -6.71265 0.227064 -1.28057 -0.16012 0.452779 1.44099 -0.353485 0.457371 3.08603 -0.361268 -9.07298 31.2751 4.10679 5.34881 -13.8224 1.13448 70.3107 7.78625 2.4545 101.926 4.5954 11.2579 1.42822e-007 -4.87977e-007 -4.46147e-006 12.1283 16.9872 -2.9097 -8.94531e-006 -7.79427e-006 -3.00001 8.02888 -4.95147 0.697695 -77.516 6.66975 -0.636927 -95.4215 12.2191 -28.0268 -6.00928e-007 8.38744e-007 2.73694e-006 -7.80832 23.1352 3.00971 -1.3052e-005 -4.85462e-006 2.99999 -8.02917 -4.95164 -0.697735 173.858 3.02279 2.2102 -180 7.01553e-015 178.951 177.512 4.99156 179.969 3.02796e-006 7.70169e-007 0.052841 -18.4951 67.7152 19.303 8.13649 25.2327 -3.48774 -175.128 -1.59135 -0.526152 4.54188e-006 -4.6773e-006 -1.13686 -2.1163 -5.5222 0.0582494 -6.39798e-007 2.19306e-006 -0.0433668 18.2755 67.4113 -19.0684 -8.13081 25.233 3.48532 
54.3706 91.6342 2.79287 0.404581 -2.35968 -6.76702 0.217951 -1.2798 -0.165239 0.434572 1.44254 -0.363826 0.439276 3.08758 -0.371309 -8.9903 31.2392 4.10289 5.27383 -13.8294 1.15504 70.4016 7.81313 2.44986 101.843 4.60767 11.2367 1.42822e-007 -4.87977e-007 -4.46147e-006 12.147 17.0676 -2.92206 -8.94531e-006 -7.79427e-006 -3.00001 8.02888 -4.95147 0.697695 -77.4393 6.62967 -0.633817 -95.4737 12.2391 -28.0681 -6.00928e-007 8.38744e-007 2.73694e-006 -7.74443 23.0395 2.97852 -1.3052e-005 -4.85462e-006 2.99999 -8.02917 -4.95164 -0.697735 173.825 3.07461 2.24019 -180 7.01554e-015 178.952 177.49 5.01326 179.97 3.02796e-006 7.70169e-007 0.0535673 -18.4917 67.7114 19.2994 8.13649 25.2327 -3.48774 -175.15 -1.55117 -0.520501 4.54188e-006 -4.6773e-006 -1.13686 -2.12331 -5.55315 0.0586507 -6.39798e-007 2.19306e-006 -0.0433668 18.2634 67.3961 -19.055 -8.13081 25.233 3.48532 
54.3682 91.6341 2.77285 0.419756 -2.34239 -6.82171 0.209203 -1.27902 -0.17016 0.417064 1.4441 -0.373733 0.421874 3.08914 -0.380929 -8.90838 31.2041 4.09869 5.19925 -13.8371 1.17498 70.4902 7.83859 2.44496 101.763 4.6187 11.2149 1.42822e-007 -4.87977e-007 -4.46147e-006 12.1658 17.1503 -2.93479 -8.94531e-006 -7.79427e-006 -3.00001 8.02888 -4.95147 0.697695 -77.3641 6.5912 -0.631118 -95.525 12.2587 -28.1092 -6.00928e-007 8.38744e-007 2.73694e-006 -7.68121 22.9443 2.94761 -1.3052e-005 -4.85462e-006 2.99999 -8.02917 -4.95164 -0.697735 173.793 3.12683 2.26877 -180 7.01554e-015 178.953 177.469 5.03583 179.97 3.02796e-006 7.70169e-007 0.0542655 -18.4884 67.7079 19.2961 8.13649 25.2327 -3.48774 -175.171 -1.51098 -0.515553 4.54188e-006 -4.6773e-006 -1.13688 -2.13023 -5.58415 0.0590587 -6.39798e-007 2.19306e-006 -0.0433668 18.2511 67.3806 -19.0413 -8.13081 25.233 3.48532 
54.2748 91.6377 2.7583 0.433668 -2.32508 -6.87679 0.200918 -1.27824 -0.174831 0.400443 1.44567 -0.383091 0.405354 3.09071 -0.390013 -8.82745 31.1698 4.0941 5.12517 -13.8457 1.19412 70.5761 7.86225 2.43974 101.685 4.62814 11.1922 1.42822e-007 -4.87977e-007 -4.46147e-006 12.1849 17.2359 -2.94801 -8.94531e-006 -7.79427e-006 -3.00001 8.02888 -4.95147 0.697695 -77.2906 6.55478 -0.62894 -95.575 12.2777 -28.1499 -6.00928e-007 8.38744e-007 2.73694e-006 -7.6188 22.8496 2.91705 -1.3052e-005 -4.85462e-006 2.99999 -8.02917 -4.95164 -0.697735 173.763 3.17954 2.29555 -180 7.01554e-015 178.953 177.448 5.05952 179.971 3.02796e-006 7.70169e-007 0.0549281 -18.4855 67.7047 19.2932 8.13649 25.2327 -3.48774 -175.19 -1.47078 -0.511499 4.54188e-006 -4.6773e-006 -1.13691 -2.13706 -5.61524 0.0594753 -6.39798e-007 2.19306e-006 -0.0433668 18.2386 67.3648 -19.0275 -8.13081 25.233 3.48532 
54.2863 91.6362 2.74717 0.44604 -2.30774 -6.93235 0.193196 -1.27745 -0.179197 0.384901 1.44725 -0.391779 0.389904 3.09229 -0.398447 -8.7477 31.1366 4.08904 5.05171 -13.8552 1.2123 70.6586 7.88372 2.43412 101.61 4.63565 11.1684 1.42822e-007 -4.87977e-007 -4.46147e-006 12.2043 17.325 -2.9618 -8.94531e-006 -7.79427e-006 -3.00001 8.02888 -4.95147 0.697695 -77.2193 6.52084 -0.627394 -95.6235 12.2962 -28.1901 -6.00928e-007 8.38744e-007 2.73694e-006 -7.55737 22.7557 2.88691 -1.3052e-005 -4.85462e-006 2.99999 -8.02917 -4.95164 -0.697735 173.736 3.23287 2.32016 -180 7.01554e-015 178.954 177.429 5.08458 179.971 3.02796e-006 7.70169e-007 0.0555472 -18.4828 67.7019 19.2906 8.13649 25.2327 -3.48774 -175.207 -1.43057 -0.50853 4.54188e-006 -4.6773e-006 -1.13696 -2.14376 -5.64642 0.0599023 -6.39798e-007 2.19306e-006 -0.0433668 18.2259 67.3486 -19.0135 -8.13081 25.233 3.48532 
54.2718 91.6349 2.73246 0.456595 -2.29037 -6.98849 0.186137 -1.27666 -0.183204 0.370628 1.44885 -0.399681 0.375714 3.09389 -0.406115 -8.66935 31.1047 4.08342 4.97897 -13.8659 1.22934 70.7371 7.90262 2.42804 101.539 4.64089 11.1434 1.42822e-007 -4.87977e-007 -4.46147e-006 12.2239 17.4182 -2.97626 -8.94531e-006 -7.79427e-006 -3.00001 8.02888 -4.95147 0.697695 -77.1507 6.48983 -0.626593 -95.6703 12.3141 -28.2297 -6.00928e-007 8.38744e-007 2.73694e-006 -7.49704 22.6625 2.85725 -1.3052e-005 -4.85462e-006 2.99999 -8.02917 -4.95164 -0.697735 173.712 3.28691 2.34219 -180 7.01554e-015 178.955 177.412 5.11125 179.971 3.02796e-006 7.70169e-007 0.0561154 -18.4805 67.6996 19.2884 8.13649 25.2327 -3.48774 -175.221 -1.39034 -0.506838 4.54188e-006 -4.6773e-006 -1.13703 -2.15033 -5.67771 0.0603413 -6.39798e-007 2.19306e-006 -0.0433668 18.2127 67.3319 -18.9992 -8.13081 25.233 3.48532 
